# xmcd
# Copyright (C) 1995-1998 Ti Kan
#
# Track frame offsets:
#       150
#       21332
#       39375
#       59255
#       78322
#       95575
#       115070
#       138552
#       155867
#       174505
#       191352
#
# Disc length: 2929 seconds
#
# Revision: 0
# Processed by: cddbd v1.4PL0 Copyright (c) Steve Scherf et al.
# Submitted via: CD-Transfer v1.0
#
DISCID=8f0b6f0b
DTITLE=Hendrix Cousins - Hendrix Cousins
DYEAR=1900
DGENRE=
TTITLE0=Got It All Beat
TTITLE1=Leaving
TTITLE2=Sombebody To Lose
TTITLE3=Parttime Girl
TTITLE4=She Tells Me
TTITLE5=Same Old Story
TTITLE6=If She Showed Up
TTITLE7=Kind Of Love
TTITLE8=Ain't The Way
TTITLE9=They Be Talking Bout You
TTITLE10=Sunny Side Down
EXTD=
EXTT0=
EXTT1=
EXTT2=
EXTT3=
EXTT4=
EXTT5=
EXTT6=
EXTT7=
EXTT8=
EXTT9=
EXTT10=
PLAYORDER=
